<svg width="80" height="80" viewBox="0 0 80 80" fill="none" xmlns="http://www.w3.org/2000/svg">
<path d="M63.4945 5.07812H12.1453C11.5311 5.07812 10.9229 5.19911 10.3555 5.43418C9.78805 5.66925 9.27248 6.01379 8.83821 6.44813C8.40394 6.88248 8.05948 7.39811 7.82451 7.96559C7.58953 8.53306 7.46865 9.14127 7.46875 9.75547V70.2445C7.46865 70.8587 7.58953 71.4669 7.82451 72.0344C8.05948 72.6019 8.40394 73.1175 8.83821 73.5519C9.27248 73.9862 9.78805 74.3307 10.3555 74.5658C10.9229 74.8009 11.5311 74.9219 12.1453 74.9219H48.6C48.4736 74.8236 48.3486 74.7236 48.225 74.6219C42.8344 70.1828 40.7188 62.4047 43.1164 55.843C44.3303 52.5143 46.5257 49.6324 49.4125 47.5781C52.2398 45.5516 55.7336 44.4984 59.2016 44.4859C60.1438 44.4968 61.0839 44.5778 62.0141 44.7281C64.2015 45.072 66.2958 45.8587 68.1688 47.0398V9.75547C68.169 8.51544 67.6767 7.32609 66.8001 6.44896C65.9236 5.57184 64.7346 5.07875 63.4945 5.07812ZM37.8203 49.9469H14.4352C13.3859 49.9469 12.6094 49.0875 12.5602 48.0719C12.5109 47.0563 13.4523 46.1969 14.4352 46.1969H37.8203C38.8687 46.1969 39.6453 47.0563 39.6914 48.0719C39.7375 49.0875 38.7992 49.9469 37.8203 49.9469ZM45.6156 34.9867H45.5617C44.3023 35.0172 43.0383 34.9867 41.7789 34.9867H14.4352C13.3859 34.9867 12.6094 34.1273 12.5602 33.1164C12.5109 32.1055 13.4523 31.2453 14.4352 31.2453H14.4891C15.7484 31.2148 17.0125 31.2453 18.2719 31.2453H45.6156C46.6641 31.2453 47.4406 32.1047 47.4859 33.1164C47.5313 34.1281 46.5938 34.9867 45.6156 34.9867ZM61.2055 20.1227H61.1227C59.2383 20.1594 57.3492 20.1227 55.4641 20.1227H14.4352C13.3859 20.1227 12.6094 19.2633 12.5602 18.2516C12.5109 17.2398 13.4523 16.3812 14.4352 16.3812H14.5133C16.3984 16.3445 18.2875 16.3812 20.1727 16.3812H61.2055C62.2539 16.3812 63.0305 17.2406 63.0805 18.2516C63.1305 19.2625 62.1875 20.1227 61.2055 20.1227Z" fill="#63BEFF"/>
<path d="M59.2018 48.228C56.5654 48.228 53.9882 49.0098 51.7962 50.4745C49.6041 51.9392 47.8956 54.021 46.8867 56.4567C45.8778 58.8923 45.6139 61.5725 46.1282 64.1582C46.6425 66.7439 47.9121 69.119 49.7763 70.9832C51.6404 72.8474 54.0156 74.1169 56.6013 74.6313C59.187 75.1456 61.8671 74.8816 64.3028 73.8727C66.7385 72.8638 68.8203 71.1553 70.285 68.9633C71.7497 66.7712 72.5315 64.1941 72.5315 61.5577C72.5316 59.8072 72.1868 58.0738 71.517 56.4565C70.8472 54.8393 69.8653 53.3698 68.6275 52.132C67.3897 50.8942 65.9202 49.9123 64.3029 49.2425C62.6857 48.5726 60.9523 48.2279 59.2018 48.228ZM52.1822 57.7296H63.3791L60.7596 55.0554C60.5382 54.828 60.4143 54.5231 60.4143 54.2058C60.4143 53.8884 60.5382 53.5836 60.7596 53.3562C60.8677 53.2449 60.997 53.1564 61.14 53.096C61.2829 53.0356 61.4365 53.0045 61.5916 53.0045C61.7468 53.0045 61.9003 53.0356 62.0433 53.096C62.1862 53.1564 62.3155 53.2449 62.4236 53.3562L67.0518 58.0819C67.7932 58.8382 67.2674 60.1327 66.2197 60.1327H52.1822C51.8636 60.1327 51.5579 60.0061 51.3326 59.7808C51.1073 59.5554 50.9807 59.2498 50.9807 58.9312C50.9807 58.6125 51.1073 58.3069 51.3326 58.0815C51.5579 57.8562 51.8636 57.7296 52.1822 57.7296ZM66.2221 65.3858H55.0252L57.6447 68.0608C57.8661 68.2882 57.99 68.5931 57.99 68.9104C57.99 69.2278 57.8661 69.5327 57.6447 69.7601C57.5367 69.8714 57.4073 69.96 57.2644 70.0204C57.1215 70.0809 56.9679 70.112 56.8127 70.112C56.6575 70.112 56.5039 70.0809 56.361 70.0204C56.2181 69.96 56.0887 69.8714 55.9807 69.7601L51.3525 65.0351C50.6111 64.2788 51.1369 62.9843 52.1846 62.9843H66.2221C66.5353 62.9923 66.8331 63.1223 67.0518 63.3467C67.2706 63.5711 67.393 63.8721 67.393 64.1854C67.393 64.4988 67.2706 64.7998 67.0518 65.0242C66.8331 65.2486 66.5353 65.3786 66.2221 65.3866V65.3858Z" fill="#63BEFF"/>
</svg>
