<svg id="svg" version="1.1" xmlns="http://www.w3.org/2000/svg" style="display: block;" viewBox="0 0 200 200"><path d="M0 0 C66 0 132 0 200 0 C200 66 200 132 200 200 C134 200 68 200 0 200 C0 134 0 68 0 0 Z " transform="translate(0,0)" style="fill: #000000;"/><path d="M0 0 C3.5 0.4375 3.5 0.4375 5.19746399 1.5304718 C7.18443332 4.43957105 6.85886028 6.89518569 6.84057617 10.38745117 C6.84123329 11.44149391 6.84123329 11.44149391 6.84190369 12.51683044 C6.83981447 14.83832636 6.81647819 17.15909909 6.79296875 19.48046875 C6.78737324 21.09043483 6.78310293 22.70040602 6.78010559 24.31037903 C6.76865318 28.54704907 6.73918279 32.7834104 6.70599365 37.0199585 C6.67530119 41.3433413 6.66160203 45.66677401 6.64648438 49.99023438 C6.6143133 58.4727979 6.56311238 66.95511054 6.5 75.4375 C-2.83578439 75.50696198 -12.17148004 75.56029178 -21.50746632 75.59293652 C-25.84239125 75.60860311 -30.1771396 75.62985934 -34.51196289 75.66381836 C-38.69408088 75.69637664 -42.87602885 75.71434553 -47.05826378 75.72213173 C-48.65510422 75.72768162 -50.25193519 75.73851906 -51.84870338 75.75469017 C-54.08269094 75.77641808 -56.31597288 75.77946896 -58.55004883 75.77807617 C-59.82245926 75.78473801 -61.09486969 75.79139984 -62.40583801 75.79826355 C-65.5 75.4375 -65.5 75.4375 -67.4070282 74.13496399 C-69.27871791 71.22809496 -68.91678804 68.77180436 -68.5 65.4375 C-65.68247434 62.68120652 -63.61560424 62.05733339 -59.73144531 62.00512695 C-58.79077209 61.98533279 -57.85009888 61.96553864 -56.88092041 61.94514465 C-55.87349792 61.93875473 -54.86607544 61.93236481 -53.828125 61.92578125 C-52.79057068 61.90783005 -51.75301636 61.88987885 -50.684021 61.87138367 C-47.3727219 61.81723623 -44.06156733 61.78337015 -40.75 61.75 C-38.50388612 61.71683091 -36.25779132 61.68234164 -34.01171875 61.64648438 C-28.50794209 61.56150729 -23.00414683 61.49317613 -17.5 61.4375 C-18.0762915 60.87675278 -18.65258301 60.31600555 -19.24633789 59.73826599 C-24.67943162 54.44554593 -30.09537446 49.13612155 -35.4929657 43.80721951 C-38.2684223 41.06826453 -41.04999548 38.33618634 -43.84667969 35.61889648 C-46.54644027 32.99530415 -49.22863609 30.35487729 -51.89962769 27.70201302 C-52.9206018 26.69395353 -53.94770922 25.69206645 -54.98098755 24.69662285 C-56.42928772 23.29927262 -57.85388197 21.87747856 -59.27734375 20.45483398 C-60.50312134 19.25237282 -60.50312134 19.25237282 -61.75366211 18.02561951 C-64.03313989 14.64737241 -63.89900687 12.43274796 -63.5 8.4375 C-62.4375 6.5 -62.4375 6.5 -60.5 5.4375 C-56.50475204 5.03849313 -54.29012759 4.90436011 -50.91188049 7.18383789 C-50.11023972 8.00102295 -49.30859894 8.81820801 -48.48266602 9.66015625 C-47.10202721 11.04158813 -47.10202721 11.04158813 -45.6934967 12.45092773 C-44.71325023 13.46691578 -43.73339575 14.48328216 -42.75390625 15.5 C-41.73411825 16.53285289 -40.71276684 17.56416427 -39.68992615 18.59399414 C-37.00931271 21.30126281 -34.35038875 24.02888815 -31.69549561 26.76135254 C-28.97974989 29.54886175 -26.24393824 32.31652158 -23.50976562 35.0859375 C-18.15338131 40.51726847 -12.81976312 45.97026955 -7.5 51.4375 C-7.49413376 50.85756287 -7.48826752 50.27762573 -7.48222351 49.68011475 C-7.41830079 43.64530788 -7.33388416 37.61103485 -7.23754883 31.57666016 C-7.20428976 29.3244531 -7.17626092 27.07216249 -7.15356445 24.81982422 C-7.12003704 21.58264554 -7.06772112 18.3462332 -7.01171875 15.109375 C-7.00532883 14.10195251 -6.9989389 13.09453003 -6.99235535 12.05657959 C-6.97256119 11.11590637 -6.95276703 10.17523315 -6.93237305 9.20605469 C-6.92126999 8.37998718 -6.91016693 7.55391968 -6.89872742 6.70281982 C-6.10233644 2.17822437 -4.51453442 0.5643168 0 0 Z " transform="translate(193.5,124.5625)" style="fill: #FEFEFE;"/><path d="M0 0 C0.70269516 -0.00043808 1.40539032 -0.00087616 2.12937927 -0.00132751 C4.45087518 0.0007617 6.77164791 0.02409798 9.09301758 0.04760742 C10.70298366 0.05320293 12.31295484 0.05747324 13.92292786 0.06047058 C18.1595979 0.07192299 22.39595922 0.10139339 26.63250732 0.13458252 C30.95589013 0.16527498 35.27932284 0.17897414 39.6027832 0.1940918 C48.08534672 0.22626288 56.56765937 0.27746379 65.05004883 0.34057617 C65.11951081 9.67636056 65.17284061 19.01205621 65.20548534 28.34804249 C65.22115194 32.68296742 65.24240817 37.01771577 65.27636719 41.35253906 C65.30892547 45.53465705 65.32689435 49.71660502 65.33468056 53.89883995 C65.34023045 55.49568039 65.35106789 57.09251136 65.367239 58.68927956 C65.38896691 60.92326711 65.39201779 63.15654906 65.390625 65.390625 C65.40061775 67.29924065 65.40061775 67.29924065 65.41081238 69.24641418 C65.05004883 72.34057617 65.05004883 72.34057617 63.74751282 74.24760437 C60.84064379 76.11929408 58.38435319 75.75736422 55.05004883 75.34057617 C52.29375535 72.52305051 51.66988222 70.45618041 51.61767578 66.57202148 C51.59788162 65.63134827 51.57808746 64.69067505 51.55769348 63.72149658 C51.55130356 62.7140741 51.54491364 61.70665161 51.53833008 60.66870117 C51.52037888 59.63114685 51.50242767 58.59359253 51.4839325 57.52459717 C51.42978505 54.21329807 51.39591898 50.9021435 51.36254883 47.59057617 C51.32937974 45.34446229 51.29489046 43.09836749 51.2590332 40.85229492 C51.17405612 35.34851826 51.10572496 29.844723 51.05004883 24.34057617 C50.48930161 24.91686768 49.92855438 25.49315918 49.35081482 26.08691406 C44.05809476 31.52000779 38.74867038 36.93595064 33.41976833 42.33354187 C30.68081336 45.10899847 27.94873516 47.89057165 25.23144531 50.68725586 C22.60785298 53.38701645 19.96742612 56.06921227 17.31456184 58.74020386 C16.30650236 59.76117798 15.30461528 60.78828539 14.30917168 61.82156372 C12.91182145 63.26986389 11.49002739 64.69445814 10.06738281 66.11791992 C8.86492165 67.34369751 8.86492165 67.34369751 7.63816833 68.59423828 C4.25992124 70.87371606 2.04529679 70.73958304 -1.94995117 70.34057617 C-3.88745117 69.27807617 -3.88745117 69.27807617 -4.94995117 67.34057617 C-5.34895804 63.34532821 -5.48309106 61.13070376 -3.20361328 57.75245667 C-2.38642822 56.95081589 -1.56924316 56.14917511 -0.72729492 55.32324219 C0.19365967 54.40281631 1.11461426 53.48239044 2.06347656 52.53407288 C3.07946461 51.55382641 4.09583098 50.57397192 5.11254883 49.59448242 C6.14540172 48.57469443 7.17671309 47.55334301 8.20654297 46.53050232 C10.91381164 43.84988888 13.64143698 41.19096493 16.37390137 38.53607178 C19.16141057 35.82032606 21.92907041 33.08451441 24.69848633 30.3503418 C30.12981729 24.99395748 35.58281838 19.6603393 41.05004883 14.34057617 C40.47011169 14.33470993 39.89017456 14.32884369 39.29266357 14.32279968 C33.2578567 14.25887696 27.22358368 14.17446033 21.18920898 14.078125 C18.93700192 14.04486593 16.68471132 14.01683709 14.43237305 13.99414062 C11.19519437 13.96061321 7.95878203 13.90829729 4.72192383 13.85229492 C3.71450134 13.845905 2.70707886 13.83951508 1.66912842 13.83293152 C0.7284552 13.81313736 -0.21221802 13.7933432 -1.18139648 13.77294922 C-2.00746399 13.76184616 -2.83353149 13.7507431 -3.68463135 13.73930359 C-6.5152574 13.24107451 -7.90340242 12.34264808 -9.94995117 10.34057617 C-10.68269975 4.47858753 -10.68269975 4.47858753 -8.85697937 1.64311218 C-5.94788012 -0.34385714 -3.49226548 -0.01828411 0 0 Z " transform="translate(134.949951171875,-0.340576171875)" style="fill: #FEFEFE;"/><path d="M0 0 C2.75629348 2.81752566 3.38016661 4.88439576 3.43237305 8.76855469 C3.46206429 10.17956451 3.46206429 10.17956451 3.49235535 11.61907959 C3.49874527 12.62650208 3.50513519 13.63392456 3.51171875 14.671875 C3.52966995 15.70942932 3.54762115 16.74698364 3.56611633 17.815979 C3.62026377 21.1272781 3.65412985 24.43843267 3.6875 27.75 C3.72066909 29.99611388 3.75515836 32.24220868 3.79101562 34.48828125 C3.87599271 39.99205791 3.94432387 45.49585317 4 51 C4.56074722 50.4237085 5.12149445 49.84741699 5.69923401 49.25366211 C10.99195407 43.82056838 16.30137845 38.40462554 21.63028049 33.0070343 C24.36923547 30.2315777 27.10131366 27.45000452 29.81860352 24.65332031 C32.44219585 21.95355973 35.08262271 19.27136391 37.73548698 16.60037231 C38.74354647 15.5793982 39.74543355 14.55229078 40.74087715 13.51901245 C42.13822738 12.07071228 43.56002144 10.64611803 44.98266602 9.22265625 C45.78430679 8.40547119 46.58594757 7.58828613 47.41188049 6.74633789 C50.79012759 4.46686011 53.00475204 4.60099313 57 5 C58.9375 6.0625 58.9375 6.0625 60 8 C60.39900687 11.99524796 60.53313989 14.20987241 58.25366211 17.58811951 C57.43647705 18.38976028 56.61929199 19.19140106 55.77734375 20.01733398 C54.85638916 20.93775986 53.93543457 21.85818573 52.98657227 22.8065033 C51.97058422 23.78674977 50.95421784 24.76660425 49.9375 25.74609375 C48.90464711 26.76588175 47.87333573 27.78723316 46.84350586 28.81007385 C44.13623719 31.49068729 41.40861185 34.14961125 38.67614746 36.80450439 C35.88863825 39.52025011 33.12097842 42.25606176 30.3515625 44.99023438 C24.92023153 50.34661869 19.46723045 55.68023688 14 61 C14.57993713 61.00586624 15.15987427 61.01173248 15.75738525 61.01777649 C21.79219212 61.08169921 27.82646515 61.16611584 33.86083984 61.26245117 C36.1130469 61.29571024 38.36533751 61.32373908 40.61767578 61.34643555 C43.85485446 61.37996296 47.0912668 61.43227888 50.328125 61.48828125 C51.33554749 61.49467117 52.34296997 61.5010611 53.38092041 61.50764465 C54.32159363 61.52743881 55.26226685 61.54723297 56.23144531 61.56762695 C57.05751282 61.57873001 57.88358032 61.58983307 58.73468018 61.60127258 C61.56530623 62.09950166 62.95345125 62.99792809 65 65 C65.73274858 70.86198864 65.73274858 70.86198864 63.9070282 73.69746399 C60.99792895 75.68443332 58.54231431 75.35886028 55.05004883 75.34057617 C54.34735367 75.34101425 53.64465851 75.34145233 52.92066956 75.34190369 C50.59917364 75.33981447 48.27840091 75.31647819 45.95703125 75.29296875 C44.34706517 75.28737324 42.73709398 75.28310293 41.12712097 75.28010559 C36.89045093 75.26865318 32.6540896 75.23918279 28.4175415 75.20599365 C24.0941587 75.17530119 19.77072599 75.16160203 15.44726562 75.14648438 C6.9647021 75.1143133 -1.51761054 75.06311238 -10 75 C-10.06946198 65.66421561 -10.12279178 56.32851996 -10.15543652 46.99253368 C-10.17110311 42.65760875 -10.19235934 38.3228604 -10.22631836 33.98803711 C-10.25887664 29.80591912 -10.27684553 25.62397115 -10.28463173 21.44173622 C-10.29018162 19.84489578 -10.30101906 18.24806481 -10.31719017 16.65129662 C-10.33891808 14.41730906 -10.34196896 12.18402712 -10.34057617 9.94995117 C-10.34723801 8.67754074 -10.35389984 7.40513031 -10.36076355 6.09416199 C-10 3 -10 3 -8.69746399 1.0929718 C-5.79059496 -0.77871791 -3.33430436 -0.41678804 0 0 Z " transform="translate(10,125)" style="fill: #FEFEFE;"/><path d="M0 0 C9.33578439 -0.06946198 18.67148004 -0.12279178 28.00746632 -0.15543652 C32.34239125 -0.17110311 36.6771396 -0.19235934 41.01196289 -0.22631836 C45.19408088 -0.25887664 49.37602885 -0.27684553 53.55826378 -0.28463173 C55.15510422 -0.29018162 56.75193519 -0.30101906 58.34870338 -0.31719017 C60.58269094 -0.33891808 62.81597288 -0.34196896 65.05004883 -0.34057617 C66.32245926 -0.34723801 67.59486969 -0.35389984 68.90583801 -0.36076355 C72 -0 72 -0 73.9070282 1.30253601 C75.77871791 4.20940504 75.41678804 6.66569564 75 10 C72.18247434 12.75629348 70.11560424 13.38016661 66.23144531 13.43237305 C65.29077209 13.45216721 64.35009888 13.47196136 63.38092041 13.49235535 C62.37349792 13.49874527 61.36607544 13.50513519 60.328125 13.51171875 C59.29057068 13.52966995 58.25301636 13.54762115 57.184021 13.56611633 C53.8727219 13.62026377 50.56156733 13.65412985 47.25 13.6875 C45.00388612 13.72066909 42.75779132 13.75515836 40.51171875 13.79101562 C35.00794209 13.87599271 29.50414683 13.94432387 24 14 C24.5762915 14.56074722 25.15258301 15.12149445 25.74633789 15.69923401 C31.17943162 20.99195407 36.59537446 26.30137845 41.9929657 31.63028049 C44.7684223 34.36923547 47.54999548 37.10131366 50.34667969 39.81860352 C53.04644027 42.44219585 55.72863609 45.08262271 58.39962769 47.73548698 C59.4206018 48.74354647 60.44770922 49.74543355 61.48098755 50.74087715 C62.92928772 52.13822738 64.35388197 53.56002144 65.77734375 54.98266602 C66.59452881 55.78430679 67.41171387 56.58594757 68.25366211 57.41188049 C70.53313989 60.79012759 70.39900687 63.00475204 70 67 C68.9375 68.9375 68.9375 68.9375 67 70 C63.00475204 70.39900687 60.79012759 70.53313989 57.41188049 68.25366211 C56.61023972 67.43647705 55.80859894 66.61929199 54.98266602 65.77734375 C54.06224014 64.85638916 53.14181427 63.93543457 52.1934967 62.98657227 C51.21325023 61.97058422 50.23339575 60.95421784 49.25390625 59.9375 C48.23411825 58.90464711 47.21276684 57.87333573 46.18992615 56.84350586 C43.50931271 54.13623719 40.85038875 51.40861185 38.19549561 48.67614746 C35.47974989 45.88863825 32.74393824 43.12097842 30.00976562 40.3515625 C24.65338131 34.92023153 19.31976312 29.46723045 14 24 C13.99413376 24.57993713 13.98826752 25.15987427 13.98222351 25.75738525 C13.91830079 31.79219212 13.83388416 37.82646515 13.73754883 43.86083984 C13.70428976 46.1130469 13.67626092 48.36533751 13.65356445 50.61767578 C13.62003704 53.85485446 13.56772112 57.0912668 13.51171875 60.328125 C13.50213387 61.83925873 13.50213387 61.83925873 13.49235535 63.38092041 C13.47256119 64.32159363 13.45276703 65.26226685 13.43237305 66.23144531 C13.41571846 67.47054657 13.41571846 67.47054657 13.39872742 68.73468018 C12.90049834 71.56530623 12.00207191 72.95345125 10 75 C4.13801136 75.73274858 4.13801136 75.73274858 1.30253601 73.9070282 C-0.68443332 70.99792895 -0.35886028 68.54231431 -0.34057617 65.05004883 C-0.34123329 63.99600609 -0.34123329 63.99600609 -0.34190369 62.92066956 C-0.33981447 60.59917364 -0.31647819 58.27840091 -0.29296875 55.95703125 C-0.28737324 54.34706517 -0.28310293 52.73709398 -0.28010559 51.12712097 C-0.26865318 46.89045093 -0.23918279 42.6540896 -0.20599365 38.4175415 C-0.17530119 34.0941587 -0.16160203 29.77072599 -0.14648438 25.44726562 C-0.1143133 16.9647021 -0.06311238 8.48238946 0 0 Z " transform="translate(0,0)" style="fill: #FEFEFE;"/></svg>