<svg width="125" height="81" viewBox="0 0 125 81" fill="none" xmlns="http://www.w3.org/2000/svg">
<ellipse cx="62.7567" cy="58.0134" rx="42.3243" ry="12.7703" fill="#2573CF" fill-opacity="0.16"/>
<path d="M104.138 55.3195C104.54 55.8854 104.819 56.4653 104.964 57.0563L104.478 57.1756C104.547 57.4536 104.581 57.7328 104.581 58.0134C104.581 58.2941 104.547 58.5732 104.478 58.8513L104.964 58.9705C104.819 59.5616 104.54 60.1415 104.138 60.7074L103.73 60.4175C103.411 60.866 103.002 61.3128 102.503 61.755L102.835 62.1291C102.384 62.5285 101.87 62.9191 101.296 63.2997L101.02 62.8829C100.526 63.2102 99.9837 63.5314 99.3955 63.8455L99.6311 64.2865C99.0857 64.5778 98.5035 64.8619 97.8864 65.1384L97.682 64.682C97.1258 64.9312 96.54 65.1744 95.9257 65.4112L96.1056 65.8777C95.5215 66.1029 94.9129 66.322 94.281 66.5347L94.1215 66.0608C93.5329 66.2589 92.9233 66.4515 92.2939 66.6384L92.4361 67.1177C91.8332 67.2967 91.2125 67.4702 90.575 67.6381L90.4477 67.1546C89.8413 67.3143 89.2193 67.4689 88.5824 67.6181L88.6965 68.1049C88.0794 68.2495 87.4488 68.3891 86.8052 68.5234L86.703 68.034C86.085 68.1629 85.4549 68.2871 84.8131 68.4062L84.9044 68.8978C84.279 69.0139 83.6428 69.1253 82.9964 69.2317L82.9152 68.7383C82.2902 68.8412 81.6555 68.9394 81.0115 69.0329L81.0834 69.5277C80.4528 69.6192 79.8136 69.7062 79.1662 69.7884L79.1032 69.2924C78.4731 69.3725 77.8351 69.448 77.1897 69.519L77.2443 70.016C76.6094 70.0857 75.9673 70.1511 75.3186 70.2118L75.272 69.714C74.6382 69.7734 73.998 69.8283 73.3518 69.8788L73.3907 70.3773C72.7532 70.427 72.1099 70.4724 71.4611 70.5134L71.4296 70.0144C70.7934 70.0545 70.1519 70.0903 69.5055 70.1217L69.5297 70.6211C68.8901 70.6521 68.2456 70.6788 67.5968 70.7011L67.5796 70.2014C66.9414 70.2233 66.2989 70.241 65.6524 70.2542L65.6626 70.7541C65.0215 70.7672 64.3764 70.776 63.7276 70.7804L63.7243 70.2804C63.4026 70.2826 63.0801 70.2837 62.7567 70.2837C62.4333 70.2837 62.1108 70.2826 61.7891 70.2804L61.7857 70.7804C61.137 70.776 60.4919 70.7672 59.8508 70.7541L59.861 70.2542C59.2145 70.241 58.572 70.2233 57.9338 70.2014L57.9166 70.7011C57.2678 70.6788 56.6233 70.6521 55.9837 70.6211L56.0079 70.1217C55.3615 70.0903 54.72 70.0545 54.0837 70.0144L54.0523 70.5134C53.4035 70.4724 52.7602 70.427 52.1227 70.3773L52.1616 69.8788C51.5153 69.8283 50.8752 69.7734 50.2414 69.714L50.1948 70.2118C49.5461 70.1511 48.904 70.0857 48.2691 70.016L48.3237 69.519C47.6783 69.448 47.0403 69.3725 46.4102 69.2924L46.3472 69.7884C45.6998 69.7062 45.0606 69.6192 44.43 69.5277L44.5019 69.0329C43.8579 68.9394 43.2232 68.8412 42.5982 68.7383L42.517 69.2317C41.8706 69.1253 41.2344 69.0139 40.609 68.8978L40.7003 68.4062C40.0585 68.2871 39.4284 68.1629 38.8104 68.034L38.7082 68.5234C38.0646 68.3891 37.434 68.2495 36.8169 68.1049L36.931 67.6181C36.2941 67.4689 35.6721 67.3143 35.0657 67.1546L34.9383 67.6381C34.3009 67.4702 33.6802 67.2967 33.0773 67.1177L33.2195 66.6384C32.5901 66.4515 31.9805 66.2589 31.3919 66.0608L31.2324 66.5347C30.6005 66.322 29.9919 66.1029 29.4078 65.8777L29.5877 65.4112C28.9734 65.1744 28.3876 64.9312 27.8314 64.682L27.627 65.1383C27.0099 64.8619 26.4277 64.5778 25.8823 64.2865L26.1179 63.8455C25.5297 63.5314 24.9876 63.2102 24.4937 62.8829L24.2175 63.2997C23.6432 62.9191 23.1289 62.5285 22.6785 62.1291L23.0102 61.755C22.5116 61.3128 22.1024 60.866 21.7832 60.4175L21.3759 60.7074C20.9731 60.1415 20.6946 59.5616 20.5495 58.9705L21.035 58.8513C20.9667 58.5732 20.9324 58.2941 20.9324 58.0134C20.9324 57.7328 20.9667 57.4536 21.035 57.1756L20.5495 57.0563C20.6946 56.4653 20.9731 55.8854 21.3759 55.3195L21.7832 55.6094C22.1024 55.1609 22.5116 54.7141 23.0102 54.2719L22.6785 53.8978C23.1289 53.4983 23.6432 53.1078 24.2175 52.7272L24.4937 53.144C24.9876 52.8167 25.5297 52.4955 26.1179 52.1814L25.8823 51.7403C26.4277 51.4491 27.0099 51.165 27.627 50.8885L27.8314 51.3448C28.3876 51.0957 28.9734 50.8525 29.5877 50.6157L29.4078 50.1491C29.9919 49.924 30.6005 49.7049 31.2324 49.4922L31.3919 49.9661C31.9805 49.768 32.5901 49.5753 33.2195 49.3885L33.0773 48.9092C33.6802 48.7302 34.3009 48.5566 34.9384 48.3888L35.0657 48.8723C35.6721 48.7126 36.2941 48.558 36.931 48.4087L36.8169 47.9219C37.434 47.7773 38.0646 47.6378 38.7082 47.5034L38.8104 47.9929C39.4284 47.8639 40.0585 47.7398 40.7003 47.6206L40.609 47.129C41.2344 47.0129 41.8706 46.9016 42.517 46.7952L42.5982 47.2886C43.2232 47.1857 43.8579 47.0874 44.5019 46.994L44.43 46.4992C45.0606 46.4076 45.6998 46.3207 46.3472 46.2384L46.4102 46.7344C47.0403 46.6544 47.6783 46.5789 48.3237 46.5079L48.2691 46.0109C48.904 45.9411 49.5461 45.8758 50.1948 45.815L50.2414 46.3129C50.8752 46.2535 51.5154 46.1985 52.1616 46.1481L52.1227 45.6496C52.7602 45.5998 53.4035 45.5544 54.0523 45.5135L54.0837 46.0125C54.72 45.9724 55.3615 45.9366 56.0079 45.9052L55.9837 45.4058C56.6233 45.3748 57.2678 45.348 57.9166 45.3258L57.9338 45.8255C58.572 45.8035 59.2145 45.7859 59.861 45.7727L59.8508 45.2728C60.4919 45.2597 61.137 45.2509 61.7857 45.2465L61.7891 45.7464C62.1108 45.7443 62.4333 45.7432 62.7567 45.7432C63.0801 45.7432 63.4026 45.7443 63.7243 45.7464L63.7276 45.2465C64.3764 45.2509 65.0215 45.2597 65.6626 45.2728L65.6524 45.7727C66.2989 45.7859 66.9414 45.8035 67.5796 45.8255L67.5968 45.3258C68.2456 45.348 68.8901 45.3748 69.5297 45.4058L69.5055 45.9052C70.1519 45.9366 70.7934 45.9724 71.4296 46.0125L71.4611 45.5135C72.1099 45.5544 72.7532 45.5998 73.3907 45.6496L73.3518 46.1481C73.9981 46.1985 74.6382 46.2535 75.272 46.3129L75.3186 45.815C75.9673 45.8758 76.6094 45.9411 77.2443 46.0109L77.1897 46.5079C77.8351 46.5789 78.4731 46.6544 79.1032 46.7345L79.1662 46.2384C79.8136 46.3207 80.4528 46.4076 81.0834 46.4992L81.0115 46.994C81.6555 47.0874 82.2902 47.1857 82.9152 47.2886L82.9964 46.7952C83.6428 46.9016 84.279 47.0129 84.9044 47.129L84.8131 47.6206C85.4549 47.7398 86.085 47.8639 86.703 47.9929L86.8052 47.5034C87.4488 47.6378 88.0794 47.7773 88.6965 47.9219L88.5824 48.4087C89.2193 48.558 89.8413 48.7126 90.4477 48.8723L90.5751 48.3888C91.2125 48.5566 91.8332 48.7302 92.4361 48.9092L92.2939 49.3885C92.9233 49.5753 93.5329 49.768 94.1215 49.9661L94.281 49.4922C94.9129 49.7049 95.5215 49.924 96.1056 50.1491L95.9257 50.6157C96.54 50.8525 97.1258 51.0957 97.682 51.3448L97.8864 50.8885C98.5035 51.165 99.0857 51.4491 99.6311 51.7403L99.3955 52.1814C99.9837 52.4955 100.526 52.8167 101.02 53.144L101.296 52.7272C101.87 53.1078 102.384 53.4983 102.835 53.8978L102.503 54.2719C103.002 54.7141 103.411 55.1609 103.73 55.6094L104.138 55.3195Z" stroke="#00C2FF" stroke-opacity="0.2" stroke-dasharray="2 2"/>
<ellipse cx="62.7567" cy="68.2293" rx="42.3243" ry="12.7703" fill="#2573CF" fill-opacity="0.16"/>
<path d="M104.138 65.5353C104.54 66.1012 104.819 66.6811 104.964 67.2722L104.478 67.3914C104.547 67.6694 104.581 67.9486 104.581 68.2293C104.581 68.5099 104.547 68.7891 104.478 69.0671L104.964 69.1863C104.819 69.7774 104.54 70.3573 104.138 70.9232L103.73 70.6333C103.411 71.0818 103.002 71.5286 102.503 71.9708L102.835 72.3449C102.384 72.7443 101.87 73.1349 101.296 73.5155L101.02 73.0987C100.526 73.426 99.9837 73.7472 99.3955 74.0613L99.6311 74.5024C99.0857 74.7936 98.5035 75.0777 97.8864 75.3542L97.682 74.8979C97.1258 75.147 96.54 75.3902 95.9257 75.627L96.1056 76.0935C95.5215 76.3187 94.9129 76.5378 94.281 76.7505L94.1215 76.2766C93.5329 76.4747 92.9233 76.6674 92.2939 76.8542L92.4361 77.3335C91.8332 77.5125 91.2125 77.686 90.575 77.8539L90.4477 77.3704C89.8413 77.5301 89.2193 77.6847 88.5824 77.8339L88.6965 78.3208C88.0794 78.4654 87.4488 78.6049 86.8052 78.7392L86.703 78.2498C86.085 78.3788 85.4549 78.5029 84.8131 78.622L84.9044 79.1136C84.279 79.2298 83.6428 79.3411 82.9964 79.4475L82.9152 78.9541C82.2902 79.057 81.6555 79.1552 81.0115 79.2487L81.0834 79.7435C80.4528 79.8351 79.8136 79.922 79.1662 80.0043L79.1032 79.5082C78.4731 79.5883 77.8351 79.6638 77.1897 79.7348L77.2443 80.2318C76.6094 80.3016 75.9673 80.3669 75.3186 80.4277L75.272 79.9298C74.6382 79.9892 73.998 80.0441 73.3518 80.0946L73.3907 80.5931C72.7532 80.6429 72.1099 80.6883 71.4611 80.7292L71.4296 80.2302C70.7934 80.2703 70.1519 80.3061 69.5055 80.3375L69.5297 80.8369C68.8901 80.8679 68.2456 80.8946 67.5968 80.9169L67.5796 80.4172C66.9414 80.4391 66.2989 80.4568 65.6524 80.47L65.6626 80.9699C65.0215 80.983 64.3764 80.9918 63.7276 80.9962L63.7243 80.4962C63.4026 80.4984 63.0801 80.4995 62.7567 80.4995C62.4333 80.4995 62.1108 80.4984 61.7891 80.4962L61.7857 80.9962C61.137 80.9918 60.4919 80.983 59.8508 80.9699L59.861 80.47C59.2145 80.4568 58.572 80.4392 57.9338 80.4172L57.9166 80.9169C57.2678 80.8946 56.6233 80.8679 55.9837 80.8369L56.0079 80.3375C55.3615 80.3061 54.72 80.2703 54.0837 80.2302L54.0523 80.7292C53.4035 80.6883 52.7602 80.6429 52.1227 80.5931L52.1616 80.0946C51.5153 80.0441 50.8752 79.9892 50.2414 79.9298L50.1948 80.4277C49.5461 80.3669 48.904 80.3016 48.2691 80.2318L48.3237 79.7348C47.6783 79.6638 47.0403 79.5883 46.4102 79.5082L46.3472 80.0043C45.6998 79.922 45.0606 79.8351 44.43 79.7435L44.5019 79.2487C43.8579 79.1552 43.2232 79.057 42.5982 78.9541L42.517 79.4475C41.8706 79.3411 41.2344 79.2297 40.609 79.1136L40.7003 78.622C40.0585 78.5029 39.4284 78.3788 38.8104 78.2498L38.7082 78.7392C38.0646 78.6049 37.434 78.4654 36.8169 78.3208L36.931 77.8339C36.2941 77.6847 35.6721 77.5301 35.0657 77.3704L34.9383 77.8539C34.3009 77.686 33.6802 77.5125 33.0773 77.3335L33.2195 76.8542C32.5901 76.6674 31.9805 76.4747 31.3919 76.2766L31.2324 76.7505C30.6005 76.5378 29.9919 76.3187 29.4078 76.0935L29.5877 75.627C28.9734 75.3902 28.3876 75.147 27.8314 74.8979L27.627 75.3542C27.0099 75.0777 26.4277 74.7936 25.8823 74.5024L26.1179 74.0613C25.5297 73.7472 24.9876 73.426 24.4937 73.0987L24.2175 73.5155C23.6432 73.1349 23.1289 72.7443 22.6785 72.3449L23.0102 71.9708C22.5116 71.5286 22.1024 71.0818 21.7832 70.6333L21.3759 70.9232C20.9731 70.3573 20.6946 69.7774 20.5495 69.1863L21.035 69.0671C20.9667 68.7891 20.9324 68.5099 20.9324 68.2293C20.9324 67.9486 20.9667 67.6694 21.035 67.3914L20.5495 67.2722C20.6946 66.6811 20.9731 66.1012 21.3759 65.5353L21.7832 65.8252C22.1024 65.3767 22.5116 64.9299 23.0102 64.4877L22.6785 64.1136C23.1289 63.7142 23.6432 63.3236 24.2175 62.943L24.4937 63.3598C24.9876 63.0325 25.5297 62.7113 26.1179 62.3972L25.8823 61.9561C26.4277 61.6649 27.0099 61.3808 27.627 61.1043L27.8314 61.5606C28.3876 61.3115 28.9734 61.0683 29.5877 60.8315L29.4078 60.365C29.9919 60.1398 30.6005 59.9207 31.2324 59.708L31.3919 60.1819C31.9805 59.9838 32.5901 59.7911 33.2195 59.6043L33.0773 59.125C33.6802 58.946 34.3009 58.7725 34.9384 58.6046L35.0657 59.0881C35.6721 58.9284 36.2941 58.7738 36.931 58.6246L36.8169 58.1378C37.434 57.9931 38.0646 57.8536 38.7082 57.7193L38.8104 58.2087C39.4284 58.0797 40.0585 57.9556 40.7003 57.8365L40.609 57.3449C41.2344 57.2288 41.8706 57.1174 42.517 57.011L42.5982 57.5044C43.2232 57.4015 43.8579 57.3033 44.5019 57.2098L44.43 56.715C45.0606 56.6234 45.6998 56.5365 46.3472 56.4543L46.4102 56.9503C47.0403 56.8702 47.6783 56.7947 48.3237 56.7237L48.2691 56.2267C48.904 56.1569 49.5461 56.0916 50.1948 56.0309L50.2414 56.5287C50.8752 56.4693 51.5154 56.4144 52.1616 56.3639L52.1227 55.8654C52.7602 55.8157 53.4035 55.7702 54.0523 55.7293L54.0837 56.2283C54.72 56.1882 55.3615 56.1524 56.0079 56.121L55.9837 55.6216C56.6233 55.5906 57.2678 55.5639 57.9166 55.5416L57.9338 56.0413C58.572 56.0194 59.2145 56.0017 59.861 55.9885L59.8508 55.4886C60.4919 55.4755 61.137 55.4667 61.7857 55.4623L61.7891 55.9623C62.1108 55.9601 62.4333 55.959 62.7567 55.959C63.0801 55.959 63.4026 55.9601 63.7243 55.9623L63.7276 55.4623C64.3764 55.4667 65.0215 55.4755 65.6626 55.4886L65.6524 55.9885C66.2989 56.0017 66.9414 56.0194 67.5796 56.0413L67.5968 55.5416C68.2456 55.5639 68.8901 55.5906 69.5297 55.6216L69.5055 56.121C70.1519 56.1524 70.7934 56.1882 71.4296 56.2283L71.4611 55.7293C72.1099 55.7702 72.7532 55.8157 73.3907 55.8654L73.3518 56.3639C73.9981 56.4144 74.6382 56.4693 75.272 56.5287L75.3186 56.0309C75.9673 56.0916 76.6094 56.1569 77.2443 56.2267L77.1897 56.7237C77.8351 56.7947 78.4731 56.8702 79.1032 56.9503L79.1662 56.4543C79.8136 56.5365 80.4528 56.6234 81.0834 56.715L81.0115 57.2098C81.6555 57.3033 82.2902 57.4015 82.9152 57.5044L82.9964 57.011C83.6428 57.1174 84.279 57.2288 84.9044 57.3449L84.8131 57.8365C85.4549 57.9556 86.085 58.0797 86.703 58.2087L86.8052 57.7193C87.4488 57.8536 88.0794 57.9932 88.6965 58.1378L88.5824 58.6246C89.2193 58.7738 89.8413 58.9284 90.4477 59.0881L90.5751 58.6046C91.2125 58.7725 91.8332 58.946 92.4361 59.125L92.2939 59.6043C92.9233 59.7911 93.5329 59.9838 94.1215 60.1819L94.281 59.708C94.9129 59.9207 95.5215 60.1398 96.1056 60.365L95.9257 60.8315C96.54 61.0683 97.1258 61.3115 97.682 61.5606L97.8864 61.1043C98.5035 61.3808 99.0857 61.6649 99.6311 61.9561L99.3955 62.3972C99.9837 62.7113 100.526 63.0325 101.02 63.3598L101.296 62.943C101.87 63.3236 102.384 63.7142 102.835 64.1136L102.503 64.4877C103.002 64.9299 103.411 65.3767 103.73 65.8252L104.138 65.5353Z" stroke="#00C2FF" stroke-opacity="0.2" stroke-dasharray="2 2"/>
<ellipse cx="62.7568" cy="44.514" rx="62.027" ry="18.973" fill="#073F80"/>
<g filter="url(#filter0_i_4994_159811)">
<ellipse cx="63.4865" cy="36.487" rx="36.4865" ry="10.9459" fill="#2CCCFF"/>
</g>
<path d="M0 8.02734H124.784V45.2436C124.784 45.2436 120.041 24.0814 62.3919 24.0814C4.74324 24.0814 0 45.2436 0 45.2436V8.02734Z" fill="url(#paint0_linear_4994_159811)" fill-opacity="0.2"/>
<path d="M17.1485 31.3779H26.2702V42.7715L62.7567 46.7023L99.2431 42.7715V31.3779H107.635L110.189 34.0413V43.0536H109.76C106.631 49.6466 86.7791 54.7293 62.7567 54.7293C38.7344 54.7293 18.883 49.6466 15.7538 43.0536H15.3242V33.932L17.1485 31.3779Z" fill="url(#paint1_linear_4994_159811)"/>
<path fill-rule="evenodd" clip-rule="evenodd" d="M96.6646 38.0943C98.3281 36.9202 99.2432 35.6385 99.2432 34.2963C99.2432 28.654 83.071 24.0801 63.1216 24.0801C43.1722 24.0801 27 28.654 27 34.2963C27 35.6385 27.9151 36.9202 29.5786 38.0943C33.4628 33.39 47.0082 29.9179 63.1216 29.9179C79.2351 29.9179 92.7805 33.39 96.6646 38.0943Z" fill="url(#paint2_linear_4994_159811)"/>
<g filter="url(#filter1_d_4994_159811)">
<path fill-rule="evenodd" clip-rule="evenodd" d="M62.7569 47.4336C88.9531 47.4336 110.189 41.3894 110.189 33.9336C110.189 26.4777 88.9531 20.4336 62.7569 20.4336C36.5607 20.4336 15.3245 26.4777 15.3245 33.9336C15.3245 41.3894 36.5607 47.4336 62.7569 47.4336ZM63.1218 44.5147C83.0712 44.5147 99.2434 39.9407 99.2434 34.2985C99.2434 28.6562 83.0712 24.0822 63.1218 24.0822C43.1723 24.0822 27.0001 28.6562 27.0001 34.2985C27.0001 39.9407 43.1723 44.5147 63.1218 44.5147Z" fill="url(#paint3_linear_4994_159811)"/>
</g>
<path d="M27.7297 0H99.2432V36.4865C99.2432 36.4865 83.5541 30.2838 62.027 29.9189C40.5 29.5541 27.7297 36.4865 27.7297 36.4865V0Z" fill="url(#paint4_linear_4994_159811)"/>
<defs>
<filter id="filter0_i_4994_159811" x="27" y="25.541" width="72.9729" height="21.8916" filterUnits="userSpaceOnUse" color-interpolation-filters="sRGB">
<feFlood flood-opacity="0" result="BackgroundImageFix"/>
<feBlend mode="normal" in="SourceGraphic" in2="BackgroundImageFix" result="shape"/>
<feColorMatrix in="SourceAlpha" type="matrix" values="0 0 0 0 0 0 0 0 0 0 0 0 0 0 0 0 0 0 127 0" result="hardAlpha"/>
<feOffset/>
<feGaussianBlur stdDeviation="5.5"/>
<feComposite in2="hardAlpha" operator="arithmetic" k2="-1" k3="1"/>
<feColorMatrix type="matrix" values="0 0 0 0 0.177243 0 0 0 0 0.901269 0 0 0 0 1 0 0 0 1 0"/>
<feBlend mode="normal" in2="shape" result="effect1_innerShadow_4994_159811"/>
</filter>
<filter id="filter1_d_4994_159811" x="15.3245" y="20.4336" width="94.865" height="28" filterUnits="userSpaceOnUse" color-interpolation-filters="sRGB">
<feFlood flood-opacity="0" result="BackgroundImageFix"/>
<feColorMatrix in="SourceAlpha" type="matrix" values="0 0 0 0 0 0 0 0 0 0 0 0 0 0 0 0 0 0 127 0" result="hardAlpha"/>
<feOffset dy="1"/>
<feComposite in2="hardAlpha" operator="out"/>
<feColorMatrix type="matrix" values="0 0 0 0 0.189743 0 0 0 0 0.795815 0 0 0 0 1 0 0 0 1 0"/>
<feBlend mode="normal" in2="BackgroundImageFix" result="effect1_dropShadow_4994_159811"/>
<feBlend mode="normal" in="SourceGraphic" in2="effect1_dropShadow_4994_159811" result="shape"/>
</filter>
<linearGradient id="paint0_linear_4994_159811" x1="62.027" y1="8.02734" x2="62.027" y2="45.2435" gradientUnits="userSpaceOnUse">
<stop stop-color="white" stop-opacity="0"/>
<stop offset="1" stop-color="white" stop-opacity="0.69"/>
</linearGradient>
<linearGradient id="paint1_linear_4994_159811" x1="15.3242" y1="38.6752" x2="110.189" y2="35.7563" gradientUnits="userSpaceOnUse">
<stop stop-color="#00369D"/>
<stop offset="0.505209" stop-color="#42A3FD"/>
<stop offset="1" stop-color="#00369D"/>
</linearGradient>
<linearGradient id="paint2_linear_4994_159811" x1="28.0946" y1="36.1206" x2="99.2432" y2="35.7558" gradientUnits="userSpaceOnUse">
<stop stop-color="#125FBA" stop-opacity="0.31"/>
<stop offset="0.479167" stop-color="#125FBA"/>
<stop offset="1" stop-color="#125FBA" stop-opacity="0.37"/>
</linearGradient>
<linearGradient id="paint3_linear_4994_159811" x1="62.7569" y1="20.4336" x2="62.7569" y2="47.4336" gradientUnits="userSpaceOnUse">
<stop stop-color="#0089D7"/>
<stop offset="0.489583" stop-color="#00C2FF"/>
<stop offset="1" stop-color="#0370D6"/>
</linearGradient>
<linearGradient id="paint4_linear_4994_159811" x1="63.4865" y1="0" x2="63.4865" y2="36.4865" gradientUnits="userSpaceOnUse">
<stop stop-color="white" stop-opacity="0"/>
<stop offset="1" stop-color="white" stop-opacity="0.33"/>
</linearGradient>
</defs>
</svg>
