<svg width="158" height="62" viewBox="0 0 158 62" fill="none" xmlns="http://www.w3.org/2000/svg">
<rect x="26" y="15" width="106" height="42" fill="url(#paint0_linear_4994_160188)"/>
<path d="M158 1L132 15V57L158 43V1Z" fill="url(#paint1_linear_4994_160188)"/>
<path d="M0 1L26 15V57L0 43V1Z" fill="url(#paint2_linear_4994_160188)"/>
<path d="M131 15.5H26.5L0 1.5H157L131 15.5Z" fill="url(#paint3_linear_4994_160188)"/>
<path d="M26 16H27V57H26V16Z" fill="url(#paint4_linear_4994_160188)"/>
<path d="M131 16H132V57H131V16Z" fill="url(#paint5_linear_4994_160188)"/>
<path d="M157 1H158V62H157V1Z" fill="url(#paint6_linear_4994_160188)" fill-opacity="0.4"/>
<path d="M0 1H1V62H0V1Z" fill="url(#paint7_linear_4994_160188)" fill-opacity="0.4"/>
<rect x="27" y="15" width="103" height="1" fill="url(#paint8_linear_4994_160188)"/>
<path d="M158 0.5L130 15V16L158 1.5V0.5Z" fill="#3B96D8" fill-opacity="0.25"/>
<path d="M0 0.5L28 15V16L0 1.5V0.5Z" fill="#3B96D8" fill-opacity="0.25"/>
<defs>
<linearGradient id="paint0_linear_4994_160188" x1="79" y1="15" x2="79" y2="57" gradientUnits="userSpaceOnUse">
<stop stop-color="#09274B"/>
<stop offset="1" stop-color="#09274B" stop-opacity="0"/>
</linearGradient>
<linearGradient id="paint1_linear_4994_160188" x1="79" y1="15" x2="79" y2="57" gradientUnits="userSpaceOnUse">
<stop stop-color="#09274B" stop-opacity="0.52"/>
<stop offset="1" stop-color="#09274B" stop-opacity="0"/>
</linearGradient>
<linearGradient id="paint2_linear_4994_160188" x1="79" y1="15" x2="79" y2="57" gradientUnits="userSpaceOnUse">
<stop stop-color="#09274B" stop-opacity="0.52"/>
<stop offset="1" stop-color="#09274B" stop-opacity="0"/>
</linearGradient>
<linearGradient id="paint3_linear_4994_160188" x1="79" y1="30.5" x2="79" y2="2" gradientUnits="userSpaceOnUse">
<stop stop-color="#2F5485"/>
<stop offset="1" stop-color="#2F5485" stop-opacity="0"/>
</linearGradient>
<linearGradient id="paint4_linear_4994_160188" x1="26.5" y1="16" x2="26.5" y2="57" gradientUnits="userSpaceOnUse">
<stop stop-color="#3A558A"/>
<stop offset="1" stop-color="#3A558A" stop-opacity="0"/>
</linearGradient>
<linearGradient id="paint5_linear_4994_160188" x1="131.5" y1="16" x2="131.5" y2="57" gradientUnits="userSpaceOnUse">
<stop stop-color="#3A558A"/>
<stop offset="1" stop-color="#3A558A" stop-opacity="0"/>
</linearGradient>
<linearGradient id="paint6_linear_4994_160188" x1="157.5" y1="1" x2="157.5" y2="42" gradientUnits="userSpaceOnUse">
<stop stop-color="#3A558A"/>
<stop offset="1" stop-color="#3A558A" stop-opacity="0"/>
</linearGradient>
<linearGradient id="paint7_linear_4994_160188" x1="0.5" y1="1" x2="0.5" y2="42" gradientUnits="userSpaceOnUse">
<stop stop-color="#3A558A"/>
<stop offset="1" stop-color="#3A558A" stop-opacity="0"/>
</linearGradient>
<linearGradient id="paint8_linear_4994_160188" x1="28.5" y1="15.9998" x2="130" y2="15.9999" gradientUnits="userSpaceOnUse">
<stop stop-color="#3B96D8" stop-opacity="0.71"/>
<stop offset="0.494792" stop-color="#96D3FF"/>
<stop offset="1" stop-color="#3B96D8" stop-opacity="0.71"/>
</linearGradient>
</defs>
</svg>
