<svg xmlns="http://www.w3.org/2000/svg" viewBox="0 0 32 32" width="54" height="54" style="border-color: rgba(187,187,187,1);border-width: 0px;border-style: solid" filter="none">
    <path d="M19.008 17.024c-0.128-0.064-0.16-0.128-0.16-0.256v-1.024c0.002-0.094 0.052-0.177 0.127-0.223l0.001-0.001c0.224-0.16 0.48-0.288 0.704-0.416 0.48-0.288 0.96-0.544 1.504-0.864-0.192-0.544-0.384-1.088-0.576-1.6-0.064-0.192-0.16-0.224-0.352-0.224-0.736 0.096-1.472 0.16-2.208 0.224-0.128 0.032-0.224-0.032-0.288-0.128-0.192-0.288-0.416-0.544-0.608-0.8-0.064-0.096-0.096-0.16-0.032-0.288 0.096-0.224 0.192-0.448 0.288-0.704 0.256-0.512 0.48-1.024 0.704-1.568-0.512-0.352-0.992-0.672-1.504-1.024-0.096-0.096-0.16-0.032-0.256 0.032-0.576 0.512-1.152 0.992-1.728 1.504-0.096 0.064-0.192 0.096-0.32 0.032l-0.96-0.288c-0.128-0.032-0.192-0.096-0.224-0.256-0.16-0.768-0.352-1.536-0.544-2.336h-1.984c-0.192 0.8-0.384 1.568-0.544 2.368-0.032 0.128-0.096 0.192-0.224 0.224l-0.96 0.288c-0.128 0.064-0.224 0.032-0.32-0.064-0.576-0.48-1.152-0.992-1.728-1.472-0.064-0.032-0.192-0.064-0.224-0.032-0.512 0.32-1.024 0.672-1.536 1.024 0.32 0.8 0.672 1.504 0.992 2.24 0.064 0.16 0.032 0.224-0.064 0.352-0.16 0.224-0.352 0.416-0.48 0.672-0.128 0.224-0.288 0.256-0.544 0.224-0.704-0.096-1.44-0.16-2.144-0.192-0.064-0.032-0.192 0.032-0.192 0.064-0.224 0.576-0.416 1.152-0.64 1.728 0.128 0.064 0.192 0.096 0.256 0.16 0.64 0.352 1.28 0.736 1.92 1.088 0.128 0.064 0.16 0.16 0.16 0.288v0.96c0 0.16-0.032 0.224-0.16 0.32-0.64 0.352-1.28 0.704-1.92 1.088-0.087 0.041-0.161 0.095-0.224 0.16l-0 0c0.192 0.544 0.384 1.056 0.544 1.6 0.064 0.192 0.192 0.224 0.352 0.192 0.736-0.064 1.472-0.128 2.208-0.224 0.128 0 0.224 0.032 0.32 0.16 0.16 0.256 0.352 0.512 0.544 0.736 0.128 0.128 0.128 0.256 0.064 0.416-0.352 0.704-0.672 1.44-0.992 2.176l1.536 1.056c0.032 0.032 0.16 0 0.224-0.064 0.687-0.567 1.249-1.048 1.804-1.538l-0.076 0.066c0.096-0.096 0.192-0.096 0.32-0.064 0.32 0.128 0.608 0.224 0.928 0.288 0.16 0.064 0.224 0.128 0.256 0.288 0.16 0.768 0.352 1.536 0.544 2.336h1.984c0.192-0.8 0.384-1.568 0.544-2.368 0.032-0.128 0.096-0.192 0.256-0.256 0.32-0.064 0.64-0.16 0.928-0.288 0.16-0.032 0.224-0.032 0.32 0.064 0.576 0.512 1.152 0.992 1.728 1.504 0.064 0.032 0.192 0.064 0.224 0.032l1.536-1.056c-0.32-0.768-0.672-1.504-0.992-2.24-0.064-0.128-0.032-0.224 0.032-0.32 0.192-0.224 0.384-0.416 0.544-0.672 0.128-0.256 0.288-0.256 0.512-0.224 0.736 0.064 1.44 0.128 2.144 0.192 0.094-0.002 0.177-0.052 0.223-0.127l0.001-0.001c0.192-0.544 0.384-1.12 0.608-1.664-0.128-0.096-0.192-0.128-0.256-0.16-0.64-0.384-1.28-0.768-1.92-1.12zM11.424 19.36c-1.664-0.064-3.072-1.504-3.040-3.168 0.064-1.76 1.536-3.072 3.36-3.040 1.696 0.032 3.072 1.504 3.040 3.2-0.064 1.728-1.536 3.040-3.36 3.008zM28.544 6.88c-0.256-0.192-0.544-0.384-0.864-0.608v2.912c0 0.16-0.064 0.256-0.192 0.32-0.576 0.288-1.12 0.608-1.696 0.896-0.128 0.096-0.256 0.096-0.416 0-0.34-0.202-0.874-0.489-1.416-0.764l-0.216-0.1c-0.192-0.096-0.224-0.192-0.224-0.384v-2.848c-0.928 0.48-1.568 1.12-1.952 1.952-0.896 1.888-0.192 3.872 1.664 4.736 0.224 0.096 0.288 0.224 0.288 0.416v2.88l-0.032 7.2c0 0.128 0 0.256 0.032 0.384 0.064 1.472 1.792 2.304 3.136 1.568 0.736-0.416 1.024-1.056 1.024-1.856v-10.208c0-0.192 0.064-0.288 0.256-0.384 0.704-0.32 1.28-0.8 1.664-1.472 0.8-1.472 0.352-3.52-1.056-4.64zM25.632 24.736c-0.48 0-0.864-0.384-0.864-0.832 0.032-0.448 0.448-0.8 0.896-0.8 0.48 0.032 0.896 0.416 0.864 0.864s-0.416 0.768-0.896 0.768z" fill="rgba(255, 255, 255, 1)"></path>
  </svg>