<svg xmlns="http://www.w3.org/2000/svg" viewBox="0 0 32 32" width="54" height="54" style="border-color: rgba(187,187,187,1);border-width: 0px;border-style: solid" filter="none">
    <path d="M31.872 18.144l-2.592-3.456-1.792-2.368c-2.368 1.344-6.944 1.728-9.632 1.856l-0.064 0.032c-0.576 0.544-1.504 0.48-2.048-0.128-0.576-0.608-0.576-1.536 0-2.080 0.544-0.512 1.44-0.48 2.016 0.096 3.456-0.128 6.944-0.672 8.48-1.44l-1.856-2.4c2.208 0.064 3.104 0.608 3.424 1.056 0.32 0.416 0.224 0.864 0.224 0.96-0.864 1.792-7.52 2.368-10.72 2.432 0-0.032-0.032-0.064-0.032-0.064-0.132-0.153-0.327-0.249-0.543-0.249-0.185 0-0.354 0.070-0.481 0.185l0.001-0.001c-0.256 0.256-0.288 0.704 0 0.992s0.736 0.32 1.024 0.064c0.032-0.032 0.064-0.096 0.096-0.16 2.176-0.064 8.896-0.384 10.88-2.272 0.224-0.192 0.352-0.384 0.48-0.608v-0.032c0-0.032 0.288-0.864-0.32-1.664-0.704-0.96-2.24-1.44-4.608-1.44l-2.24-2.944c-0.084-0.117-0.219-0.192-0.372-0.192-0.004 0-0.008 0-0.013 0h0.001c-0.031-0.008-0.066-0.013-0.102-0.013-0.109 0-0.208 0.041-0.282 0.109l0-0-11.744 10.976c-0.096 0.096-0.128 0.256-0.128 0.384 0 0.16 0.064 0.288 0.16 0.384l12.704 11.392c0.224 0.192 0.544 0.192 0.736 0l9.312-8.704c0.192-0.192 0.224-0.512 0.032-0.704zM9.536 13.696c0.106-0.1 0.221-0.194 0.342-0.281l0.010-0.007c0-0.032-0.032-0.032-0.064-0.032-1.76-0.096-3.52-0.032-5.216 0.416-0.96 0.224-1.856 0.576-2.624 1.184-0.832 0.672-1.472 1.44-1.792 2.464-0.384 1.216-0.16 2.368 0.512 3.456 0.064 0.064 0.128 0.16 0.192 0.256s0.384 0.608 1.088 0.96c0.448 0.256 1.344 0.64 2.56 0.288 0.032-0.032 0.032-0.032 0.064-0.032h0.032c0.896-0.288 1.536-0.928 1.984-1.856 0.355-0.794 0.605-1.716 0.701-2.683l0.003-0.037c0.192-1.664 0.928-3.040 2.208-4.096z" fill="rgba(255, 255, 255, 1)"></path>
  </svg>