<svg xmlns="http://www.w3.org/2000/svg" viewBox="0 0 32 32" width="24" height="24" style="border-color: rgba(187,187,187,1);border-width: 0px;border-style: solid" filter="none">
    <path d="M7.561 5.676l10.324 10.324-1.885 1.885-4.595-4.595c-0.465 0.775-0.739 1.71-0.739 2.709 0 2.946 2.388 5.333 5.333 5.333s5.333-2.388 5.333-5.333c0-2.828-2.2-5.141-4.982-5.322l-0.016-0.001-2.407-2.407c0.621-0.173 1.335-0.273 2.072-0.273 4.418 0 8 3.582 8 8s-3.582 8-8 8c-4.418 0-8-3.582-8-8 0-1.738 0.554-3.346 1.495-4.658l-0.016 0.024-1.905-1.905c-1.396 1.786-2.238 4.063-2.238 6.538 0 5.891 4.776 10.667 10.667 10.667s10.667-4.776 10.667-10.667c0-5.891-4.776-10.667-10.667-10.667-1.505 0-2.937 0.312-4.236 0.874l0.069-0.027-2.003-2.001c1.784-0.951 3.901-1.509 6.148-1.509 0.007 0 0.014 0 0.021 0h-0.001c7.364 0 13.333 5.969 13.333 13.333s-5.969 13.333-13.333 13.333-13.333-5.969-13.333-13.333c0-0.004 0-0.009 0-0.014 0-4.147 1.897-7.851 4.871-10.292l0.023-0.019z" fill="rgba(254, 172, 94, 1)"></path>
  </svg>