<svg xmlns="http://www.w3.org/2000/svg" viewBox="0 0 32 32" width="24" height="24" style="border-color: rgba(187,187,187,1);border-width: 0px;border-style: solid" filter="none">
    <path d="M4.096 3.904h-1.92c-0.096 0-0.16 0.096-0.16 0.192v23.808c0 0.096 0.064 0.192 0.16 0.192h1.92c0.103-0.007 0.185-0.089 0.192-0.191l0-0.001v-23.808c-0.007-0.103-0.089-0.185-0.191-0.192l-0.001-0zM25.184 3.904h-1.888c-0.128 0-0.192 0.096-0.192 0.192v23.808c0 0.096 0.064 0.192 0.192 0.192h1.888c0.128 0 0.192-0.096 0.192-0.192v-23.808c0-0.096-0.064-0.192-0.192-0.192zM13.696 3.904h-1.92c-0.096 0-0.16 0.096-0.16 0.192v23.808c0 0.096 0.064 0.192 0.16 0.192h1.92c0.103-0.007 0.185-0.089 0.192-0.191l0-0.001v-23.808c-0.007-0.103-0.089-0.185-0.191-0.192l-0.001-0zM19.936 3.904h-1.152c-0.128 0-0.192 0.096-0.192 0.192v23.808c0 0.096 0.064 0.192 0.192 0.192h1.152c0.103-0.007 0.185-0.089 0.192-0.191l0-0.001v-23.808c-0.007-0.103-0.089-0.185-0.191-0.192l-0.001-0zM17.184 3.904h-0.768c-0.103 0.007-0.185 0.089-0.192 0.191l-0 0.001v23.808c0 0.096 0.096 0.192 0.192 0.192h0.768c0.103-0.007 0.185-0.089 0.192-0.191l0-0.001v-23.808c-0.032-0.096-0.096-0.192-0.192-0.192zM8.8 3.904h-0.992c-0.128 0-0.192 0.096-0.192 0.192v23.808c0 0.096 0.064 0.192 0.192 0.192h0.992c0.103-0.007 0.185-0.089 0.192-0.191l0-0.001v-23.808c-0.007-0.103-0.089-0.185-0.191-0.192l-0.001-0zM6.752 3.904h-0.768c-0.103 0.007-0.185 0.089-0.192 0.191l-0 0.001v23.808c0 0.096 0.096 0.192 0.192 0.192h0.768c0.103-0.007 0.185-0.089 0.192-0.191l0-0.001v-23.808c-0.007-0.103-0.089-0.185-0.191-0.192l-0.001-0zM29.824 3.904h-0.992c-0.128 0-0.192 0.096-0.192 0.192v23.808c0 0.096 0.064 0.192 0.192 0.192h0.992c0.103-0.007 0.185-0.089 0.192-0.191l0-0.001v-23.808c-0.007-0.103-0.089-0.185-0.191-0.192l-0.001-0zM27.776 3.904h-0.768c-0.103 0.007-0.185 0.089-0.192 0.191l-0 0.001v23.808c0 0.096 0.096 0.192 0.192 0.192h0.768c0.103-0.007 0.185-0.089 0.192-0.191l0-0.001v-23.808c-0.007-0.103-0.089-0.185-0.191-0.192l-0.001-0z" fill="rgba(0, 0, 0, 0.7)"></path>
  </svg>